# Blender v2.79 (sub 0) OBJ File: 'body.blend'
# www.blender.org
mtllib body.mtl
o Cube_Cube.001
v -1.003947 0.786693 0.965629
v -1.003947 2.786693 0.965629
v -1.003947 0.786693 -1.034371
v -1.003947 2.786693 -1.034371
v 0.996053 0.786693 0.965629
v 0.996053 2.786693 0.965629
v 0.996053 0.786693 -1.034371
v 0.996053 2.786693 -1.034371
v -1.003947 0.786693 0.965629
v -1.003947 2.786693 0.965629
v -1.003947 0.786693 -1.034371
v -1.003947 2.786693 -1.034371
v 0.996053 0.786693 0.965629
v 0.996053 2.786693 0.965629
v 0.996053 0.786693 -1.034371
v 0.996053 2.786693 -1.034371
v -1.003947 3.605856 0.965629
v -1.003947 3.605856 -1.034371
v 0.996053 3.605856 0.965629
v 0.996053 3.605856 -1.034371
v -1.003947 2.786693 3.040825
v 0.996053 2.786693 3.040825
v -1.003947 3.605856 3.040825
v 0.996053 3.605856 3.040825
v -1.003947 2.786693 4.830644
v 0.996053 2.786693 4.830644
v -1.003947 3.605856 4.830644
v 0.996053 3.605856 4.830644
v -1.003947 2.786693 -2.710239
v 0.996053 2.786693 -2.710239
v -1.003947 3.605856 -2.710239
v 0.996053 3.605856 -2.710239
v -1.003947 2.786693 -4.315273
v 0.996053 2.786693 -4.315273
v -1.003947 3.605856 -4.315273
v 0.996053 3.605856 -4.315273
v -1.003947 0.786693 0.965629
v -1.003947 0.786693 -1.034371
v 0.996053 0.786693 0.965629
v 0.996053 0.786693 -1.034371
v -1.003947 -0.088922 0.965629
v -1.003947 -0.088922 -1.034371
v 0.996053 -0.088922 0.965629
v 0.996053 -0.088922 -1.034371
v 0.996053 -0.088922 -0.030503
v -1.003947 -0.088922 0.031501
v -1.003947 -0.088922 0.965629
v 0.996053 -0.088922 0.965629
v 0.996053 -0.088922 -0.030503
v -1.003947 -0.088922 0.031501
v -1.216501 -0.783420 1.313765
v 0.783499 -0.783420 1.313765
v 0.783499 -0.783420 0.317634
v -1.216501 -0.783420 0.379638
v -1.042239 -0.800766 -1.356645
v 0.957761 -0.800766 -1.356645
v 0.957761 -0.800766 -0.352776
v -1.042239 -0.800766 -0.290772
v 0.957761 -0.800766 -0.352776
v -1.042239 -0.800766 -0.290772
v -1.042239 -2.465829 -1.356645
v 0.957761 -2.465829 -1.356645
v 0.957761 -2.465829 -0.352776
v -1.042239 -2.465829 -0.290772
v 0.957761 -2.465829 -0.352776
v -1.042239 -2.465829 -0.290772
v -1.042239 -4.556570 -1.356645
v 0.957761 -4.556570 -1.356645
v 0.957761 -4.556570 -0.352776
v -1.042239 -4.556570 -0.290772
v 0.957761 -4.556570 -0.352776
v -1.042239 -4.556570 -0.290772
v -1.216501 -2.452696 1.313765
v 0.783499 -2.452696 1.313765
v 0.783499 -2.452696 0.317634
v -1.216501 -2.452696 0.379638
v -1.216501 -4.444551 1.313765
v 0.783499 -4.444551 1.313765
v 0.783499 -4.444551 0.317634
v -1.216501 -4.444551 0.379638
v -0.294934 3.848497 0.587780
v -0.294934 3.848497 -0.343715
v 0.636561 3.848497 0.587780
v 0.636561 3.848497 -0.343715
v -0.294934 4.380160 0.587780
v -0.294934 4.380160 -0.343715
v 0.636561 4.380160 0.587780
v 0.636561 4.380160 -0.343715
vn 1.0000 0.0000 0.0000
vn 0.0000 0.0000 1.0000
vn -1.0000 0.0000 0.0000
vn 0.0000 0.0000 -1.0000
vn 0.0000 1.0000 0.0000
vn 0.0000 -1.0000 0.0000
vn 0.5594 0.8289 0.0000
vn -0.0278 -0.4411 -0.8970
vn -0.9986 0.0537 0.0000
vn 0.0000 0.4481 0.8940
vn 0.9562 -0.2927 0.0000
vn -0.9562 0.2927 0.0000
vn 0.0310 0.0000 0.9995
vn 0.0282 -0.4135 0.9101
vn 0.0000 0.4124 -0.9110
vn 0.9986 -0.0537 0.0000
vn -0.0310 0.0000 -0.9995
vn -0.3238 0.9461 0.0000
vn 0.0000 0.8414 0.5403
vn 0.0000 0.9435 -0.3315
usemtl None
s off
f 1//1 3//1 4//1 2//1
f 3//2 7//2 8//2 4//2
f 7//3 5//3 6//3 8//3
f 5//4 1//4 2//4 6//4
f 3//5 1//5 5//5 7//5
f 8//6 6//6 2//6 4//6
f 9//3 10//3 12//3 11//3
f 11//4 12//4 16//4 15//4
f 15//1 16//1 14//1 13//1
f 13//2 14//2 10//2 9//2
f 13//2 9//2 37//2 39//2
f 14//1 16//1 20//1 19//1
f 19//7 20//7 84//7 83//7
f 12//3 10//3 17//3 18//3
f 14//1 19//1 24//1 22//1
f 12//3 18//3 31//3 29//3
f 23//3 21//3 25//3 27//3
f 19//5 17//5 23//5 24//5
f 10//6 14//6 22//6 21//6
f 17//3 10//3 21//3 23//3
f 25//2 26//2 28//2 27//2
f 24//5 23//5 27//5 28//5
f 22//1 24//1 28//1 26//1
f 21//6 22//6 26//6 25//6
f 30//6 29//6 33//6 34//6
f 18//5 20//5 32//5 31//5
f 16//6 12//6 29//6 30//6
f 20//1 16//1 30//1 32//1
f 34//4 33//4 35//4 36//4
f 29//3 31//3 35//3 33//3
f 31//5 32//5 36//5 35//5
f 32//1 30//1 34//1 36//1
f 40//1 39//1 43//1 45//1 44//1
f 11//2 15//2 40//2 38//2
f 9//2 11//2 38//2 37//2
f 15//2 13//2 39//2 40//2
f 50//2 46//2 58//2 60//2
f 37//3 38//3 42//3 46//3 41//3
f 39//2 37//2 41//2 43//2
f 38//4 40//4 44//4 42//4
f 50//8 49//8 53//8 54//8
f 43//2 41//2 47//2 48//2
f 46//9 42//9 55//9 58//9
f 45//2 43//2 48//2 49//2
f 41//2 46//2 50//2 47//2
f 52//2 51//2 73//2 74//2
f 48//10 47//10 51//10 52//10
f 49//11 48//11 52//11 53//11
f 47//12 50//12 54//12 51//12
f 58//3 55//3 61//3 64//3
f 59//13 60//13 66//13 65//13
f 49//14 50//14 60//14 59//14
f 42//15 44//15 56//15 55//15
f 45//2 49//2 59//2 57//2
f 44//16 45//16 57//16 56//16
f 66//2 64//2 70//2 72//2
f 62//1 63//1 69//1 68//1
f 55//4 56//4 62//4 61//4
f 57//2 59//2 65//2 63//2
f 56//1 57//1 63//1 62//1
f 60//2 58//2 64//2 66//2
f 67//6 68//6 69//6 70//6
f 70//2 69//2 71//2 72//2
f 65//13 66//13 72//13 71//13
f 64//3 61//3 67//3 70//3
f 61//4 62//4 68//4 67//4
f 63//2 65//2 71//2 69//2
f 74//2 73//2 77//2 78//2
f 53//1 52//1 74//1 75//1
f 51//3 54//3 76//3 73//3
f 54//17 53//17 75//17 76//17
f 80//6 79//6 78//6 77//6
f 75//1 74//1 78//1 79//1
f 73//3 76//3 80//3 77//3
f 76//17 75//17 79//17 80//17
f 81//2 83//2 87//2 85//2
f 18//18 17//18 81//18 82//18
f 17//19 19//19 83//19 81//19
f 20//20 18//20 82//20 84//20
f 88//5 86//5 85//5 87//5
f 84//4 82//4 86//4 88//4
f 83//1 84//1 88//1 87//1
f 82//3 81//3 85//3 86//3
